#tb 0: 1001/30000
0,          0,          0,        1,    63000, 2465560246c1ee24d937cb9cbc1422f1
0,          1,          1,        1,    63000, 8926b628dcdf2182516822c7d0d778ec
0,          2,          2,        1,    63000, 9bd14d3ebc7fe81c4223116de1b9c2ec
0,          3,          3,        1,    63000, 2d029d8461c20236066c0786950540fb
0,          4,          4,        1,    63000, 39412b6e62de43bd40c58d4e2e38daf8
0,          5,          5,        1,    63000, 3ea211c24f606b29582147bf872994dd
0,          6,          6,        1,    63000, 261c37f88bf7f40549642578d9464aeb
0,          7,          7,        1,    63000, 98551d44de1e23165e05975babb72446
0,          8,          8,        1,    63000, 1d85ad052dd27e7e6bfea5d2babf5176
0,          9,          9,        1,    63000, ad18b6a3698a3674c2488f927810eb0d
